<svg width="450" height="422" viewBox="0 0 450 422" fill="none" xmlns="http://www.w3.org/2000/svg">
<path d="M0 20C0 8.9543 8.95431 0 20 0H430C441.046 0 450 8.95431 450 20V100H0V20Z" fill="#5946A9"/>
<g filter="url(#filter0_d_31_18969)">
<path d="M63.5909 36.16H57.7709L56.7709 39H54.3909L59.3709 25.08H62.0109L66.9909 39H64.5909L63.5909 36.16ZM62.9509 34.3L60.6909 27.84L58.4109 34.3H62.9509ZM74.7163 27.8C75.5829 27.8 76.3563 27.98 77.0363 28.34C77.7296 28.7 78.2696 29.2333 78.6563 29.94C79.0429 30.6467 79.2363 31.5 79.2363 32.5V39H76.9763V32.84C76.9763 31.8533 76.7296 31.1 76.2363 30.58C75.7429 30.0467 75.0696 29.78 74.2163 29.78C73.3629 29.78 72.6829 30.0467 72.1763 30.58C71.6829 31.1 71.4363 31.8533 71.4363 32.84V39H69.1563V27.98H71.4363V29.24C71.8096 28.7867 72.2829 28.4333 72.8563 28.18C73.4429 27.9267 74.0629 27.8 74.7163 27.8ZM86.1445 39.18C85.2779 39.18 84.4979 39.0267 83.8045 38.72C83.1245 38.4 82.5845 37.9733 82.1845 37.44C81.7845 36.8933 81.5712 36.2867 81.5445 35.62H83.9045C83.9445 36.0867 84.1645 36.48 84.5645 36.8C84.9779 37.1067 85.4912 37.26 86.1045 37.26C86.7445 37.26 87.2379 37.14 87.5845 36.9C87.9445 36.6467 88.1245 36.3267 88.1245 35.94C88.1245 35.5267 87.9245 35.22 87.5245 35.02C87.1379 34.82 86.5179 34.6 85.6645 34.36C84.8379 34.1333 84.1645 33.9133 83.6445 33.7C83.1245 33.4867 82.6712 33.16 82.2845 32.72C81.9112 32.28 81.7245 31.7 81.7245 30.98C81.7245 30.3933 81.8979 29.86 82.2445 29.38C82.5912 28.8867 83.0845 28.5 83.7245 28.22C84.3779 27.94 85.1245 27.8 85.9645 27.8C87.2179 27.8 88.2245 28.12 88.9845 28.76C89.7579 29.3867 90.1712 30.2467 90.2245 31.34H87.9445C87.9045 30.8467 87.7045 30.4533 87.3445 30.16C86.9845 29.8667 86.4979 29.72 85.8845 29.72C85.2845 29.72 84.8245 29.8333 84.5045 30.06C84.1845 30.2867 84.0245 30.5867 84.0245 30.96C84.0245 31.2533 84.1312 31.5 84.3445 31.7C84.5579 31.9 84.8179 32.06 85.1245 32.18C85.4312 32.2867 85.8845 32.4267 86.4845 32.6C87.2845 32.8133 87.9379 33.0333 88.4445 33.26C88.9645 33.4733 89.4112 33.7933 89.7845 34.22C90.1579 34.6467 90.3512 35.2133 90.3645 35.92C90.3645 36.5467 90.1912 37.1067 89.8445 37.6C89.4979 38.0933 89.0045 38.48 88.3645 38.76C87.7379 39.04 86.9979 39.18 86.1445 39.18ZM107.628 27.98L104.208 39H101.808L99.5881 30.86L97.3681 39H94.9681L91.5281 27.98H93.8481L96.1481 36.84L98.4881 27.98H100.868L103.108 36.8L105.388 27.98H107.628ZM119.432 33.22C119.432 33.6333 119.405 34.0067 119.352 34.34H110.932C110.999 35.22 111.325 35.9267 111.912 36.46C112.499 36.9933 113.219 37.26 114.072 37.26C115.299 37.26 116.165 36.7467 116.672 35.72H119.132C118.799 36.7333 118.192 37.5667 117.312 38.22C116.445 38.86 115.365 39.18 114.072 39.18C113.019 39.18 112.072 38.9467 111.232 38.48C110.405 38 109.752 37.3333 109.272 36.48C108.805 35.6133 108.572 34.6133 108.572 33.48C108.572 32.3467 108.799 31.3533 109.252 30.5C109.719 29.6333 110.365 28.9667 111.192 28.5C112.032 28.0333 112.992 27.8 114.072 27.8C115.112 27.8 116.039 28.0267 116.852 28.48C117.665 28.9333 118.299 29.5733 118.752 30.4C119.205 31.2133 119.432 32.1533 119.432 33.22ZM117.052 32.5C117.039 31.66 116.739 30.9867 116.152 30.48C115.565 29.9733 114.839 29.72 113.972 29.72C113.185 29.72 112.512 29.9733 111.952 30.48C111.392 30.9733 111.059 31.6467 110.952 32.5H117.052ZM123.956 29.58C124.289 29.02 124.729 28.5867 125.276 28.28C125.836 27.96 126.496 27.8 127.256 27.8V30.16H126.676C125.782 30.16 125.102 30.3867 124.636 30.84C124.182 31.2933 123.956 32.08 123.956 33.2V39H121.676V27.98H123.956V29.58ZM143.527 25.1V26.96H139.827V39H137.547V26.96H133.827V25.1H143.527ZM160.636 27.98L157.216 39H154.816L152.596 30.86L150.376 39H147.976L144.536 27.98H146.856L149.156 36.84L151.496 27.98H153.876L156.116 36.8L158.396 27.98H160.636ZM167.12 39.18C166.08 39.18 165.14 38.9467 164.3 38.48C163.46 38 162.8 37.3333 162.32 36.48C161.84 35.6133 161.6 34.6133 161.6 33.48C161.6 32.36 161.847 31.3667 162.34 30.5C162.833 29.6333 163.507 28.9667 164.36 28.5C165.213 28.0333 166.167 27.8 167.22 27.8C168.273 27.8 169.227 28.0333 170.08 28.5C170.933 28.9667 171.607 29.6333 172.1 30.5C172.593 31.3667 172.84 32.36 172.84 33.48C172.84 34.6 172.587 35.5933 172.08 36.46C171.573 37.3267 170.88 38 170 38.48C169.133 38.9467 168.173 39.18 167.12 39.18ZM167.12 37.2C167.707 37.2 168.253 37.06 168.76 36.78C169.28 36.5 169.7 36.08 170.02 35.52C170.34 34.96 170.5 34.28 170.5 33.48C170.5 32.68 170.347 32.0067 170.04 31.46C169.733 30.9 169.327 30.48 168.82 30.2C168.313 29.92 167.767 29.78 167.18 29.78C166.593 29.78 166.047 29.92 165.54 30.2C165.047 30.48 164.653 30.9 164.36 31.46C164.067 32.0067 163.92 32.68 163.92 33.48C163.92 34.6667 164.22 35.5867 164.82 36.24C165.433 36.88 166.2 37.2 167.12 37.2ZM191.049 41.52L188.609 38.88C188.009 39.0533 187.349 39.14 186.629 39.14C185.336 39.14 184.142 38.84 183.049 38.24C181.969 37.6267 181.109 36.78 180.469 35.7C179.842 34.6067 179.529 33.38 179.529 32.02C179.529 30.66 179.842 29.44 180.469 28.36C181.109 27.28 181.969 26.44 183.049 25.84C184.142 25.2267 185.336 24.92 186.629 24.92C187.936 24.92 189.129 25.2267 190.209 25.84C191.302 26.44 192.162 27.28 192.789 28.36C193.416 29.44 193.729 30.66 193.729 32.02C193.729 33.3 193.449 34.46 192.889 35.5C192.342 36.5267 191.582 37.3533 190.609 37.98L193.949 41.52H191.049ZM181.869 32.02C181.869 33.0467 182.069 33.9533 182.469 34.74C182.882 35.5133 183.449 36.1133 184.169 36.54C184.889 36.9533 185.709 37.16 186.629 37.16C187.549 37.16 188.369 36.9533 189.089 36.54C189.809 36.1133 190.369 35.5133 190.769 34.74C191.182 33.9533 191.389 33.0467 191.389 32.02C191.389 30.9933 191.182 30.0933 190.769 29.32C190.369 28.5467 189.809 27.9533 189.089 27.54C188.369 27.1267 187.549 26.92 186.629 26.92C185.709 26.92 184.889 27.1267 184.169 27.54C183.449 27.9533 182.882 28.5467 182.469 29.32C182.069 30.0933 181.869 30.9933 181.869 32.02ZM206.011 27.98V39H203.731V37.7C203.371 38.1533 202.898 38.5133 202.311 38.78C201.738 39.0333 201.125 39.16 200.471 39.16C199.605 39.16 198.825 38.98 198.131 38.62C197.451 38.26 196.911 37.7267 196.511 37.02C196.125 36.3133 195.931 35.46 195.931 34.46V27.98H198.191V34.12C198.191 35.1067 198.438 35.8667 198.931 36.4C199.425 36.92 200.098 37.18 200.951 37.18C201.805 37.18 202.478 36.92 202.971 36.4C203.478 35.8667 203.731 35.1067 203.731 34.12V27.98H206.011ZM219.12 33.22C219.12 33.6333 219.093 34.0067 219.04 34.34H210.62C210.686 35.22 211.013 35.9267 211.6 36.46C212.186 36.9933 212.906 37.26 213.76 37.26C214.986 37.26 215.853 36.7467 216.36 35.72H218.82C218.486 36.7333 217.88 37.5667 217 38.22C216.133 38.86 215.053 39.18 213.76 39.18C212.706 39.18 211.76 38.9467 210.92 38.48C210.093 38 209.44 37.3333 208.96 36.48C208.493 35.6133 208.26 34.6133 208.26 33.48C208.26 32.3467 208.486 31.3533 208.94 30.5C209.406 29.6333 210.053 28.9667 210.88 28.5C211.72 28.0333 212.68 27.8 213.76 27.8C214.8 27.8 215.726 28.0267 216.54 28.48C217.353 28.9333 217.986 29.5733 218.44 30.4C218.893 31.2133 219.12 32.1533 219.12 33.22ZM216.74 32.5C216.726 31.66 216.426 30.9867 215.84 30.48C215.253 29.9733 214.526 29.72 213.66 29.72C212.873 29.72 212.2 29.9733 211.64 30.48C211.08 30.9733 210.746 31.6467 210.64 32.5H216.74ZM225.363 39.18C224.497 39.18 223.717 39.0267 223.023 38.72C222.343 38.4 221.803 37.9733 221.403 37.44C221.003 36.8933 220.79 36.2867 220.763 35.62H223.123C223.163 36.0867 223.383 36.48 223.783 36.8C224.197 37.1067 224.71 37.26 225.323 37.26C225.963 37.26 226.457 37.14 226.803 36.9C227.163 36.6467 227.343 36.3267 227.343 35.94C227.343 35.5267 227.143 35.22 226.743 35.02C226.357 34.82 225.737 34.6 224.883 34.36C224.057 34.1333 223.383 33.9133 222.863 33.7C222.343 33.4867 221.89 33.16 221.503 32.72C221.13 32.28 220.943 31.7 220.943 30.98C220.943 30.3933 221.117 29.86 221.463 29.38C221.81 28.8867 222.303 28.5 222.943 28.22C223.597 27.94 224.343 27.8 225.183 27.8C226.437 27.8 227.443 28.12 228.203 28.76C228.977 29.3867 229.39 30.2467 229.443 31.34H227.163C227.123 30.8467 226.923 30.4533 226.563 30.16C226.203 29.8667 225.717 29.72 225.103 29.72C224.503 29.72 224.043 29.8333 223.723 30.06C223.403 30.2867 223.243 30.5867 223.243 30.96C223.243 31.2533 223.35 31.5 223.563 31.7C223.777 31.9 224.037 32.06 224.343 32.18C224.65 32.2867 225.103 32.4267 225.703 32.6C226.503 32.8133 227.157 33.0333 227.663 33.26C228.183 33.4733 228.63 33.7933 229.003 34.22C229.377 34.6467 229.57 35.2133 229.583 35.92C229.583 36.5467 229.41 37.1067 229.063 37.6C228.717 38.0933 228.223 38.48 227.583 38.76C226.957 39.04 226.217 39.18 225.363 39.18ZM234.707 29.84V35.94C234.707 36.3533 234.8 36.6533 234.987 36.84C235.187 37.0133 235.52 37.1 235.987 37.1H237.387V39H235.587C234.56 39 233.774 38.76 233.227 38.28C232.68 37.8 232.407 37.02 232.407 35.94V29.84H231.107V27.98H232.407V25.24H234.707V27.98H237.387V29.84H234.707ZM240.648 26.52C240.235 26.52 239.888 26.38 239.608 26.1C239.328 25.82 239.188 25.4733 239.188 25.06C239.188 24.6467 239.328 24.3 239.608 24.02C239.888 23.74 240.235 23.6 240.648 23.6C241.048 23.6 241.388 23.74 241.668 24.02C241.948 24.3 242.088 24.6467 242.088 25.06C242.088 25.4733 241.948 25.82 241.668 26.1C241.388 26.38 241.048 26.52 240.648 26.52ZM241.768 27.98V39H239.488V27.98H241.768ZM249.542 39.18C248.502 39.18 247.562 38.9467 246.722 38.48C245.882 38 245.222 37.3333 244.742 36.48C244.262 35.6133 244.022 34.6133 244.022 33.48C244.022 32.36 244.268 31.3667 244.762 30.5C245.255 29.6333 245.928 28.9667 246.782 28.5C247.635 28.0333 248.588 27.8 249.642 27.8C250.695 27.8 251.648 28.0333 252.502 28.5C253.355 28.9667 254.028 29.6333 254.522 30.5C255.015 31.3667 255.262 32.36 255.262 33.48C255.262 34.6 255.008 35.5933 254.502 36.46C253.995 37.3267 253.302 38 252.422 38.48C251.555 38.9467 250.595 39.18 249.542 39.18ZM249.542 37.2C250.128 37.2 250.675 37.06 251.182 36.78C251.702 36.5 252.122 36.08 252.442 35.52C252.762 34.96 252.922 34.28 252.922 33.48C252.922 32.68 252.768 32.0067 252.462 31.46C252.155 30.9 251.748 30.48 251.242 30.2C250.735 29.92 250.188 29.78 249.602 29.78C249.015 29.78 248.468 29.92 247.962 30.2C247.468 30.48 247.075 30.9 246.782 31.46C246.488 32.0067 246.342 32.68 246.342 33.48C246.342 34.6667 246.642 35.5867 247.242 36.24C247.855 36.88 248.622 37.2 249.542 37.2ZM263.076 27.8C263.942 27.8 264.716 27.98 265.396 28.34C266.089 28.7 266.629 29.2333 267.016 29.94C267.402 30.6467 267.596 31.5 267.596 32.5V39H265.336V32.84C265.336 31.8533 265.089 31.1 264.596 30.58C264.102 30.0467 263.429 29.78 262.576 29.78C261.722 29.78 261.042 30.0467 260.536 30.58C260.042 31.1 259.796 31.8533 259.796 32.84V39H257.516V27.98H259.796V29.24C260.169 28.7867 260.642 28.4333 261.216 28.18C261.802 27.9267 262.422 27.8 263.076 27.8ZM274.504 39.18C273.637 39.18 272.857 39.0267 272.164 38.72C271.484 38.4 270.944 37.9733 270.544 37.44C270.144 36.8933 269.931 36.2867 269.904 35.62H272.264C272.304 36.0867 272.524 36.48 272.924 36.8C273.337 37.1067 273.851 37.26 274.464 37.26C275.104 37.26 275.597 37.14 275.944 36.9C276.304 36.6467 276.484 36.3267 276.484 35.94C276.484 35.5267 276.284 35.22 275.884 35.02C275.497 34.82 274.877 34.6 274.024 34.36C273.197 34.1333 272.524 33.9133 272.004 33.7C271.484 33.4867 271.031 33.16 270.644 32.72C270.271 32.28 270.084 31.7 270.084 30.98C270.084 30.3933 270.257 29.86 270.604 29.38C270.951 28.8867 271.444 28.5 272.084 28.22C272.737 27.94 273.484 27.8 274.324 27.8C275.577 27.8 276.584 28.12 277.344 28.76C278.117 29.3867 278.531 30.2467 278.584 31.34H276.304C276.264 30.8467 276.064 30.4533 275.704 30.16C275.344 29.8667 274.857 29.72 274.244 29.72C273.644 29.72 273.184 29.8333 272.864 30.06C272.544 30.2867 272.384 30.5867 272.384 30.96C272.384 31.2533 272.491 31.5 272.704 31.7C272.917 31.9 273.177 32.06 273.484 32.18C273.791 32.2867 274.244 32.4267 274.844 32.6C275.644 32.8133 276.297 33.0333 276.804 33.26C277.324 33.4733 277.771 33.7933 278.144 34.22C278.517 34.6467 278.711 35.2133 278.724 35.92C278.724 36.5467 278.551 37.1067 278.204 37.6C277.857 38.0933 277.364 38.48 276.724 38.76C276.097 39.04 275.357 39.18 274.504 39.18ZM297.123 39L295.403 37.28C294.736 37.9467 294.009 38.4467 293.223 38.78C292.436 39.1 291.556 39.26 290.583 39.26C289.596 39.26 288.723 39.0867 287.963 38.74C287.203 38.3933 286.616 37.9 286.203 37.26C285.789 36.6067 285.583 35.8533 285.583 35C285.583 34.04 285.856 33.1867 286.403 32.44C286.949 31.68 287.763 31.08 288.843 30.64C288.456 30.1733 288.183 29.74 288.023 29.34C287.863 28.9267 287.783 28.4733 287.783 27.98C287.783 27.3667 287.936 26.82 288.243 26.34C288.563 25.86 289.016 25.48 289.603 25.2C290.189 24.92 290.869 24.78 291.643 24.78C292.429 24.78 293.096 24.9333 293.643 25.24C294.203 25.5333 294.616 25.94 294.883 26.46C295.163 26.98 295.276 27.56 295.223 28.2H292.943C292.956 27.7067 292.836 27.3267 292.583 27.06C292.329 26.78 291.983 26.64 291.543 26.64C291.103 26.64 290.743 26.7733 290.463 27.04C290.196 27.2933 290.063 27.6067 290.063 27.98C290.063 28.34 290.163 28.7 290.363 29.06C290.576 29.4067 290.943 29.86 291.463 30.42L295.143 34.08L296.563 31.74H299.023L297.223 34.82L296.723 35.64L300.103 39H297.123ZM290.583 37.32C291.836 37.32 292.943 36.8067 293.903 35.78L290.223 32.08C288.649 32.7067 287.863 33.6533 287.863 34.92C287.863 35.6 288.116 36.1733 288.623 36.64C289.129 37.0933 289.783 37.32 290.583 37.32ZM324.893 25.1L320.773 39H318.193L315.273 28.48L312.173 39L309.613 39.02L305.673 25.1H308.093L310.973 36.42L314.093 25.1H316.653L319.553 36.36L322.453 25.1H324.893ZM327.933 26.52C327.52 26.52 327.173 26.38 326.893 26.1C326.613 25.82 326.473 25.4733 326.473 25.06C326.473 24.6467 326.613 24.3 326.893 24.02C327.173 23.74 327.52 23.6 327.933 23.6C328.333 23.6 328.673 23.74 328.953 24.02C329.233 24.3 329.373 24.6467 329.373 25.06C329.373 25.4733 329.233 25.82 328.953 26.1C328.673 26.38 328.333 26.52 327.933 26.52ZM329.053 27.98V39H326.773V27.98H329.053ZM337.607 27.8C338.474 27.8 339.247 27.98 339.927 28.34C340.62 28.7 341.16 29.2333 341.547 29.94C341.934 30.6467 342.127 31.5 342.127 32.5V39H339.867V32.84C339.867 31.8533 339.62 31.1 339.127 30.58C338.634 30.0467 337.96 29.78 337.107 29.78C336.254 29.78 335.574 30.0467 335.067 30.58C334.574 31.1 334.327 31.8533 334.327 32.84V39H332.047V27.98H334.327V29.24C334.7 28.7867 335.174 28.4333 335.747 28.18C336.334 27.9267 336.954 27.8 337.607 27.8ZM352.49 25.1V33.96C352.49 35.0133 352.764 35.8067 353.31 36.34C353.87 36.8733 354.644 37.14 355.63 37.14C356.63 37.14 357.404 36.8733 357.95 36.34C358.51 35.8067 358.79 35.0133 358.79 33.96V25.1H361.07V33.92C361.07 35.0533 360.824 36.0133 360.33 36.8C359.837 37.5867 359.177 38.1733 358.35 38.56C357.524 38.9467 356.61 39.14 355.61 39.14C354.61 39.14 353.697 38.9467 352.87 38.56C352.057 38.1733 351.41 37.5867 350.93 36.8C350.45 36.0133 350.21 35.0533 350.21 33.92V25.1H352.49ZM366.319 29.6C366.706 29.0933 367.232 28.6667 367.899 28.32C368.566 27.9733 369.319 27.8 370.159 27.8C371.119 27.8 371.992 28.04 372.779 28.52C373.579 28.9867 374.206 29.6467 374.659 30.5C375.112 31.3533 375.339 32.3333 375.339 33.44C375.339 34.5467 375.112 35.54 374.659 36.42C374.206 37.2867 373.579 37.9667 372.779 38.46C371.992 38.94 371.119 39.18 370.159 39.18C369.319 39.18 368.572 39.0133 367.919 38.68C367.266 38.3333 366.732 37.9067 366.319 37.4V44.24H364.039V27.98H366.319V29.6ZM373.019 33.44C373.019 32.68 372.859 32.0267 372.539 31.48C372.232 30.92 371.819 30.5 371.299 30.22C370.792 29.9267 370.246 29.78 369.659 29.78C369.086 29.78 368.539 29.9267 368.019 30.22C367.512 30.5133 367.099 30.94 366.779 31.5C366.472 32.06 366.319 32.72 366.319 33.48C366.319 34.24 366.472 34.9067 366.779 35.48C367.099 36.04 367.512 36.4667 368.019 36.76C368.539 37.0533 369.086 37.2 369.659 37.2C370.246 37.2 370.792 37.0533 371.299 36.76C371.819 36.4533 372.232 36.0133 372.539 35.44C372.859 34.8667 373.019 34.2 373.019 33.44ZM380.254 29.84V35.94C380.254 36.3533 380.347 36.6533 380.534 36.84C380.734 37.0133 381.067 37.1 381.534 37.1H382.934V39H381.134C380.107 39 379.32 38.76 378.774 38.28C378.227 37.8 377.954 37.02 377.954 35.94V29.84H376.654V27.98H377.954V25.24H380.254V27.98H382.934V29.84H380.254ZM389.815 39.18C388.775 39.18 387.835 38.9467 386.995 38.48C386.155 38 385.495 37.3333 385.015 36.48C384.535 35.6133 384.295 34.6133 384.295 33.48C384.295 32.36 384.542 31.3667 385.035 30.5C385.528 29.6333 386.202 28.9667 387.055 28.5C387.908 28.0333 388.862 27.8 389.915 27.8C390.968 27.8 391.922 28.0333 392.775 28.5C393.628 28.9667 394.302 29.6333 394.795 30.5C395.288 31.3667 395.535 32.36 395.535 33.48C395.535 34.6 395.282 35.5933 394.775 36.46C394.268 37.3267 393.575 38 392.695 38.48C391.828 38.9467 390.868 39.18 389.815 39.18ZM389.815 37.2C390.402 37.2 390.948 37.06 391.455 36.78C391.975 36.5 392.395 36.08 392.715 35.52C393.035 34.96 393.195 34.28 393.195 33.48C393.195 32.68 393.042 32.0067 392.735 31.46C392.428 30.9 392.022 30.48 391.515 30.2C391.008 29.92 390.462 29.78 389.875 29.78C389.288 29.78 388.742 29.92 388.235 30.2C387.742 30.48 387.348 30.9 387.055 31.46C386.762 32.0067 386.615 32.68 386.615 33.48C386.615 34.6667 386.915 35.5867 387.515 36.24C388.128 36.88 388.895 37.2 389.815 37.2ZM146.702 76.7V72.89C151.352 69.05 156.302 65.24 156.302 61.55C156.302 59.96 155.582 58.94 154.022 58.94C152.492 58.94 151.592 60.14 151.592 62.21H146.642C146.792 56.9 150.242 54.62 154.232 54.62C159.212 54.62 161.432 57.53 161.432 61.22C161.432 66.02 157.142 69.86 153.662 72.53H161.762V76.7H146.702ZM164.021 65.75C164.021 59.33 166.211 54.65 172.451 54.65C178.691 54.65 180.881 59.33 180.881 65.75C180.881 72.23 178.691 76.91 172.451 76.91C166.211 76.91 164.021 72.23 164.021 65.75ZM175.841 65.75C175.841 62.39 175.481 59.45 172.451 59.45C169.421 59.45 169.061 62.39 169.061 65.75C169.061 69.23 169.421 72.11 172.451 72.11C175.481 72.11 175.841 69.23 175.841 65.75ZM183.591 65.75C183.591 59.33 185.781 54.65 192.021 54.65C198.261 54.65 200.451 59.33 200.451 65.75C200.451 72.23 198.261 76.91 192.021 76.91C185.781 76.91 183.591 72.23 183.591 65.75ZM195.411 65.75C195.411 62.39 195.051 59.45 192.021 59.45C188.991 59.45 188.631 62.39 188.631 65.75C188.631 69.23 188.991 72.11 192.021 72.11C195.051 72.11 195.411 69.23 195.411 65.75ZM209.159 66.44C209.159 60.14 213.539 55.7 219.749 55.7C224.759 55.7 228.539 58.52 229.739 63.08H224.099C223.229 61.28 221.639 60.38 219.689 60.38C216.539 60.38 214.379 62.72 214.379 66.44C214.379 70.16 216.539 72.5 219.689 72.5C221.639 72.5 223.229 71.6 224.099 69.8H229.739C228.539 74.36 224.759 77.15 219.749 77.15C213.539 77.15 209.159 72.74 209.159 66.44ZM253.611 66.41C253.611 72.74 248.811 77.21 242.841 77.21C236.871 77.21 232.011 72.74 232.011 66.41C232.011 60.08 236.871 55.64 242.841 55.64C248.841 55.64 253.611 60.08 253.611 66.41ZM237.261 66.41C237.261 70.1 239.421 72.53 242.841 72.53C246.201 72.53 248.391 70.1 248.391 66.41C248.391 62.66 246.201 60.29 242.841 60.29C239.421 60.29 237.261 62.66 237.261 66.41ZM256.464 77V55.94H261.594V77H256.464ZM279.022 55.94H284.152V77H279.022L270.442 64.01V77H265.312V55.94H270.442L279.022 68.99V55.94ZM303.171 70.73C303.171 74.27 300.411 77.21 295.491 77.21C290.961 77.21 287.421 74.96 287.271 70.7H292.731C292.881 72.32 293.901 73.1 295.341 73.1C296.841 73.1 297.801 72.35 297.801 71.12C297.801 67.22 287.271 69.32 287.331 61.85C287.331 57.86 290.601 55.64 295.011 55.64C299.601 55.64 302.691 57.92 302.901 61.94H297.351C297.261 60.59 296.301 59.78 294.921 59.75C293.691 59.72 292.761 60.35 292.761 61.67C292.761 65.33 303.171 63.68 303.171 70.73Z" fill="white"/>
</g>
<path d="M0 380C0 391.046 8.95431 400 20 400H430C441.046 400 450 391.046 450 380V100H0V380Z" fill="#2C2159"/>
<rect x="-1" y="1" width="162" height="42" rx="11" transform="matrix(1 0 0 -1 145 422)" fill="white" stroke="#392C6E" stroke-width="2"/>
<rect width="400" height="110" rx="15" transform="matrix(1 0 0 -1 25 229)" fill="white"/>
<rect width="190" height="50" rx="15" transform="matrix(1 0 0 -1 25 359)" fill="white"/>
<rect width="190" height="50" rx="15" transform="matrix(1 0 0 -1 235 359)" fill="#34A853"/>
<rect width="190" height="50" rx="15" transform="matrix(1 0 0 -1 25 296)" fill="white"/>
<rect width="190" height="50" rx="15" transform="matrix(1 0 0 -1 235 296)" fill="white"/>
<path d="M76.7742 155V142.436H79.6362L83.6322 151.778L87.6282 142.436H90.4722V155H87.9522V146.828L84.5862 155H82.6782L79.2942 146.828V155H76.7742ZM97.2477 146.936C96.0417 146.936 95.0877 147.71 94.8897 149.078H99.6237C99.5877 147.764 98.5437 146.936 97.2477 146.936ZM101.982 151.868C101.442 153.704 99.7857 155.162 97.3197 155.162C94.4217 155.162 92.3157 153.146 92.3157 150.014C92.3157 146.864 94.3677 144.866 97.3197 144.866C100.2 144.866 102.234 146.828 102.234 149.798C102.234 150.122 102.216 150.446 102.162 150.77H94.8717C94.9977 152.246 96.0057 153.074 97.2657 153.074C98.3457 153.074 98.9397 152.534 99.2637 151.868H101.982ZM104.469 151.904V147.098H103.281V145.028H104.469V142.562H107.007V145.028H109.239V147.098H107.007V151.922C107.007 152.588 107.277 152.876 108.069 152.876H109.239V155H107.655C105.747 155 104.469 154.19 104.469 151.904ZM110.404 149.978C110.404 146.864 112.42 144.866 114.958 144.866C116.56 144.866 117.658 145.622 118.252 146.45V145.028H120.79V155H118.252V153.542C117.658 154.406 116.524 155.162 114.94 155.162C112.42 155.162 110.404 153.092 110.404 149.978ZM118.252 150.014C118.252 148.124 116.992 147.08 115.606 147.08C114.256 147.08 112.978 148.088 112.978 149.978C112.978 151.868 114.256 152.948 115.606 152.948C116.992 152.948 118.252 151.904 118.252 150.014ZM123.251 155V141.68H125.771V155H123.251ZM136.001 152.156C136.001 153.866 134.507 155.162 132.077 155.162C129.575 155.162 127.829 153.704 127.721 151.85H130.259C130.349 152.606 131.051 153.182 132.059 153.182C133.049 153.182 133.589 152.732 133.589 152.156C133.589 150.374 127.955 151.508 127.955 147.854C127.955 146.198 129.431 144.866 131.897 144.866C134.309 144.866 135.767 146.18 135.911 148.16H133.499C133.427 147.386 132.815 146.864 131.825 146.864C130.889 146.864 130.403 147.242 130.403 147.818C130.403 149.636 135.929 148.502 136.001 152.156ZM144.176 155L141.242 145.028H143.798L145.562 152.624L147.47 145.028H150.134L152.006 152.606L153.77 145.028H156.182L153.266 155H150.548L148.73 148.034L146.912 155H144.176ZM157.546 155V141.68H160.066V146.27C160.714 145.424 161.83 144.884 163.162 144.884C165.412 144.884 167.05 146.396 167.05 149.15V155H164.53V149.492C164.53 147.89 163.648 147.026 162.316 147.026C160.948 147.026 160.066 147.89 160.066 149.492V155H157.546ZM169.446 155V145.028H171.966V155H169.446ZM170.724 143.84C169.824 143.84 169.176 143.192 169.176 142.364C169.176 141.536 169.824 140.888 170.724 140.888C171.606 140.888 172.272 141.536 172.272 142.364C172.272 143.192 171.606 143.84 170.724 143.84ZM173.808 150.014C173.808 146.882 175.86 144.866 178.74 144.866C181.224 144.866 182.898 146.162 183.438 148.394H180.72C180.432 147.548 179.766 147.008 178.722 147.008C177.318 147.008 176.382 148.07 176.382 150.014C176.382 151.958 177.318 153.002 178.722 153.002C179.766 153.002 180.414 152.534 180.72 151.634H183.438C182.898 153.758 181.224 155.162 178.74 155.162C175.86 155.162 173.808 153.146 173.808 150.014ZM185.284 155V141.68H187.804V146.27C188.452 145.424 189.568 144.884 190.9 144.884C193.15 144.884 194.788 146.396 194.788 149.15V155H192.268V149.492C192.268 147.89 191.386 147.026 190.054 147.026C188.686 147.026 187.804 147.89 187.804 149.492V155H185.284ZM200.825 150.014C200.825 146.882 202.877 144.866 205.757 144.866C208.241 144.866 209.915 146.162 210.455 148.394H207.737C207.449 147.548 206.783 147.008 205.739 147.008C204.335 147.008 203.399 148.07 203.399 150.014C203.399 151.958 204.335 153.002 205.739 153.002C206.783 153.002 207.431 152.534 207.737 151.634H210.455C209.915 153.758 208.241 155.162 205.757 155.162C202.877 155.162 200.825 153.146 200.825 150.014ZM212.302 155V141.68H214.822V146.27C215.47 145.424 216.586 144.884 217.918 144.884C220.168 144.884 221.806 146.396 221.806 149.15V155H219.286V149.492C219.286 147.89 218.404 147.026 217.072 147.026C215.704 147.026 214.822 147.89 214.822 149.492V155H212.302ZM228.486 146.936C227.28 146.936 226.326 147.71 226.128 149.078H230.862C230.826 147.764 229.782 146.936 228.486 146.936ZM233.22 151.868C232.68 153.704 231.024 155.162 228.558 155.162C225.66 155.162 223.554 153.146 223.554 150.014C223.554 146.864 225.606 144.866 228.558 144.866C231.438 144.866 233.472 146.828 233.472 149.798C233.472 150.122 233.454 150.446 233.4 150.77H226.11C226.236 152.246 227.244 153.074 228.504 153.074C229.584 153.074 230.178 152.534 230.502 151.868H233.22ZM249.261 155V149.492C249.261 147.908 248.379 147.08 247.047 147.08C245.697 147.08 244.815 147.908 244.815 149.492V155H242.295V149.492C242.295 147.908 241.413 147.08 240.081 147.08C238.713 147.08 237.831 147.908 237.831 149.492V155H235.311V145.028H237.831V146.234C238.461 145.406 239.523 144.884 240.765 144.884C242.313 144.884 243.591 145.55 244.275 146.792C244.923 145.658 246.237 144.884 247.695 144.884C250.089 144.884 251.781 146.396 251.781 149.15V155H249.261ZM254.173 155V145.028H256.693V155H254.173ZM255.451 143.84C254.551 143.84 253.903 143.192 253.903 142.364C253.903 141.536 254.551 140.888 255.451 140.888C256.333 140.888 256.999 141.536 256.999 142.364C256.999 143.192 256.333 143.84 255.451 143.84ZM258.534 150.014C258.534 146.882 260.586 144.866 263.466 144.866C265.95 144.866 267.624 146.162 268.164 148.394H265.446C265.158 147.548 264.492 147.008 263.448 147.008C262.044 147.008 261.108 148.07 261.108 150.014C261.108 151.958 262.044 153.002 263.448 153.002C264.492 153.002 265.14 152.534 265.446 151.634H268.164C267.624 153.758 265.95 155.162 263.466 155.162C260.586 155.162 258.534 153.146 258.534 150.014ZM269.363 149.978C269.363 146.864 271.379 144.866 273.917 144.866C275.519 144.866 276.617 145.622 277.211 146.45V145.028H279.749V155H277.211V153.542C276.617 154.406 275.483 155.162 273.899 155.162C271.379 155.162 269.363 153.092 269.363 149.978ZM277.211 150.014C277.211 148.124 275.951 147.08 274.565 147.08C273.215 147.08 271.937 148.088 271.937 149.978C271.937 151.868 273.215 152.948 274.565 152.948C275.951 152.948 277.211 151.904 277.211 150.014ZM282.21 155V141.68H284.73V155H282.21ZM287.22 155V141.68H289.74V155H287.22ZM296.477 151.994L299.087 145.028H301.769L295.595 159.716H292.913L295.073 154.748L291.077 145.028H293.903L296.477 151.994ZM309.937 146.486C310.549 145.568 311.719 144.866 313.231 144.866C315.787 144.866 317.785 146.864 317.785 149.978C317.785 153.092 315.787 155.162 313.231 155.162C311.665 155.162 310.549 154.442 309.937 153.578V155H307.417V141.68H309.937V146.486ZM315.211 149.978C315.211 148.088 313.933 147.08 312.565 147.08C311.215 147.08 309.937 148.124 309.937 150.014C309.937 151.904 311.215 152.948 312.565 152.948C313.933 152.948 315.211 151.868 315.211 149.978ZM323.9 146.936C322.694 146.936 321.74 147.71 321.542 149.078H326.276C326.24 147.764 325.196 146.936 323.9 146.936ZM328.634 151.868C328.094 153.704 326.438 155.162 323.972 155.162C321.074 155.162 318.968 153.146 318.968 150.014C318.968 146.864 321.02 144.866 323.972 144.866C326.852 144.866 328.886 146.828 328.886 149.798C328.886 150.122 328.868 150.446 328.814 150.77H321.524C321.65 152.246 322.658 153.074 323.918 153.074C324.998 153.074 325.592 152.534 325.916 151.868H328.634ZM330.725 155V141.68H333.245V146.27C333.893 145.424 335.009 144.884 336.341 144.884C338.591 144.884 340.229 146.396 340.229 149.15V155H337.709V149.492C337.709 147.89 336.827 147.026 335.495 147.026C334.127 147.026 333.245 147.89 333.245 149.492V155H330.725ZM341.978 149.978C341.978 146.864 343.994 144.866 346.532 144.866C348.134 144.866 349.232 145.622 349.826 146.45V145.028H352.364V155H349.826V153.542C349.232 154.406 348.098 155.162 346.514 155.162C343.994 155.162 341.978 153.092 341.978 149.978ZM349.826 150.014C349.826 148.124 348.566 147.08 347.18 147.08C345.83 147.08 344.552 148.088 344.552 149.978C344.552 151.868 345.83 152.948 347.18 152.948C348.566 152.948 349.826 151.904 349.826 150.014ZM353.763 145.028H356.463L358.983 152.678L361.503 145.028H364.185L360.495 155H357.435L353.763 145.028ZM369.884 146.936C368.678 146.936 367.724 147.71 367.526 149.078H372.26C372.224 147.764 371.18 146.936 369.884 146.936ZM374.618 151.868C374.078 153.704 372.422 155.162 369.956 155.162C367.058 155.162 364.952 153.146 364.952 150.014C364.952 146.864 367.004 144.866 369.956 144.866C372.836 144.866 374.87 146.828 374.87 149.798C374.87 150.122 374.852 150.446 374.798 150.77H367.508C367.634 152.246 368.642 153.074 369.902 153.074C370.982 153.074 371.576 152.534 371.9 151.868H374.618ZM83.3987 170.486C84.0107 169.568 85.1807 168.866 86.6927 168.866C89.2487 168.866 91.2467 170.864 91.2467 173.978C91.2467 177.092 89.2487 179.162 86.6927 179.162C85.1267 179.162 84.0107 178.442 83.3987 177.578V179H80.8787V165.68H83.3987V170.486ZM88.6727 173.978C88.6727 172.088 87.3947 171.08 86.0267 171.08C84.6767 171.08 83.3987 172.124 83.3987 174.014C83.3987 175.904 84.6767 176.948 86.0267 176.948C87.3947 176.948 88.6727 175.868 88.6727 173.978ZM102.708 174.014C102.708 177.146 100.404 179.162 97.5059 179.162C94.6259 179.162 92.4479 177.146 92.4479 174.014C92.4479 170.864 94.6979 168.866 97.5779 168.866C100.458 168.866 102.708 170.864 102.708 174.014ZM95.0039 174.014C95.0039 175.994 96.1559 176.966 97.5059 176.966C98.8379 176.966 100.116 175.994 100.116 174.014C100.116 172.016 98.8739 171.062 97.5419 171.062C96.2099 171.062 95.0039 172.016 95.0039 174.014ZM104.952 175.904V171.098H103.764V169.028H104.952V166.562H107.49V169.028H109.722V171.098H107.49V175.922C107.49 176.588 107.76 176.876 108.552 176.876H109.722V179H108.138C106.23 179 104.952 178.19 104.952 175.904ZM111.535 179V165.68H114.055V170.27C114.703 169.424 115.819 168.884 117.151 168.884C119.401 168.884 121.039 170.396 121.039 173.15V179H118.519V173.492C118.519 171.89 117.637 171.026 116.305 171.026C114.937 171.026 114.055 171.89 114.055 173.492V179H111.535ZM127.076 173.978C127.076 170.864 129.092 168.866 131.63 168.866C133.232 168.866 134.33 169.622 134.924 170.45V169.028H137.462V179H134.924V177.542C134.33 178.406 133.196 179.162 131.612 179.162C129.092 179.162 127.076 177.092 127.076 173.978ZM134.924 174.014C134.924 172.124 133.664 171.08 132.278 171.08C130.928 171.08 129.65 172.088 129.65 173.978C129.65 175.868 130.928 176.948 132.278 176.948C133.664 176.948 134.924 175.904 134.924 174.014ZM147.664 176.156C147.664 177.866 146.17 179.162 143.74 179.162C141.238 179.162 139.492 177.704 139.384 175.85H141.922C142.012 176.606 142.714 177.182 143.722 177.182C144.712 177.182 145.252 176.732 145.252 176.156C145.252 174.374 139.618 175.508 139.618 171.854C139.618 170.198 141.094 168.866 143.56 168.866C145.972 168.866 147.43 170.18 147.574 172.16H145.162C145.09 171.386 144.478 170.864 143.488 170.864C142.552 170.864 142.066 171.242 142.066 171.818C142.066 173.636 147.592 172.502 147.664 176.156ZM167.971 179V173.492C167.971 171.908 167.089 171.08 165.757 171.08C164.407 171.08 163.525 171.908 163.525 173.492V179H161.005V173.492C161.005 171.908 160.123 171.08 158.791 171.08C157.423 171.08 156.541 171.908 156.541 173.492V179H154.021V169.028H156.541V170.234C157.171 169.406 158.233 168.884 159.475 168.884C161.023 168.884 162.301 169.55 162.985 170.792C163.633 169.658 164.947 168.884 166.405 168.884C168.799 168.884 170.491 170.396 170.491 173.15V179H167.971ZM177.167 170.936C175.961 170.936 175.007 171.71 174.809 173.078H179.543C179.507 171.764 178.463 170.936 177.167 170.936ZM181.901 175.868C181.361 177.704 179.705 179.162 177.239 179.162C174.341 179.162 172.235 177.146 172.235 174.014C172.235 170.864 174.287 168.866 177.239 168.866C180.119 168.866 182.153 170.828 182.153 173.798C182.153 174.122 182.135 174.446 182.081 174.77H174.791C174.917 176.246 175.925 177.074 177.185 177.074C178.265 177.074 178.859 176.534 179.183 175.868H181.901ZM184.388 175.904V171.098H183.2V169.028H184.388V166.562H186.926V169.028H189.158V171.098H186.926V175.922C186.926 176.588 187.196 176.876 187.988 176.876H189.158V179H187.574C185.666 179 184.388 178.19 184.388 175.904ZM190.323 173.978C190.323 170.864 192.339 168.866 194.877 168.866C196.479 168.866 197.577 169.622 198.171 170.45V169.028H200.709V179H198.171V177.542C197.577 178.406 196.443 179.162 194.859 179.162C192.339 179.162 190.323 177.092 190.323 173.978ZM198.171 174.014C198.171 172.124 196.911 171.08 195.525 171.08C194.175 171.08 192.897 172.088 192.897 173.978C192.897 175.868 194.175 176.948 195.525 176.948C196.911 176.948 198.171 175.904 198.171 174.014ZM203.17 179V165.68H205.69V179H203.17ZM215.92 176.156C215.92 177.866 214.426 179.162 211.996 179.162C209.494 179.162 207.748 177.704 207.64 175.85H210.178C210.268 176.606 210.97 177.182 211.978 177.182C212.968 177.182 213.508 176.732 213.508 176.156C213.508 174.374 207.874 175.508 207.874 171.854C207.874 170.198 209.35 168.866 211.816 168.866C214.228 168.866 215.686 170.18 215.83 172.16H213.418C213.346 171.386 212.734 170.864 211.744 170.864C210.808 170.864 210.322 171.242 210.322 171.818C210.322 173.636 215.848 172.502 215.92 176.156ZM221.629 173.978C221.629 170.864 223.645 168.866 226.183 168.866C227.785 168.866 228.883 169.622 229.477 170.45V169.028H232.015V179H229.477V177.542C228.883 178.406 227.749 179.162 226.165 179.162C223.645 179.162 221.629 177.092 221.629 173.978ZM229.477 174.014C229.477 172.124 228.217 171.08 226.831 171.08C225.481 171.08 224.203 172.088 224.203 173.978C224.203 175.868 225.481 176.948 226.831 176.948C228.217 176.948 229.477 175.904 229.477 174.014ZM241.46 179V173.492C241.46 171.89 240.578 171.026 239.246 171.026C237.878 171.026 236.996 171.89 236.996 173.492V179H234.476V169.028H236.996V170.27C237.644 169.424 238.724 168.884 240.002 168.884C242.324 168.884 243.98 170.396 243.98 173.15V179H241.46ZM245.729 173.978C245.729 170.864 247.745 168.866 250.301 168.866C251.615 168.866 252.875 169.478 253.559 170.414V165.68H256.115V179H253.559V177.524C252.965 178.442 251.849 179.162 250.283 179.162C247.745 179.162 245.729 177.092 245.729 173.978ZM253.577 174.014C253.577 172.124 252.317 171.08 250.931 171.08C249.581 171.08 248.303 172.088 248.303 173.978C248.303 175.868 249.581 176.948 250.931 176.948C252.317 176.948 253.577 175.904 253.577 174.014ZM269.849 179V173.492C269.849 171.89 268.967 171.026 267.635 171.026C266.267 171.026 265.385 171.89 265.385 173.492V179H262.865V169.028H265.385V170.27C266.033 169.424 267.113 168.884 268.391 168.884C270.713 168.884 272.369 170.396 272.369 173.15V179H269.849ZM284.395 174.014C284.395 177.146 282.091 179.162 279.193 179.162C276.313 179.162 274.135 177.146 274.135 174.014C274.135 170.864 276.385 168.866 279.265 168.866C282.145 168.866 284.395 170.864 284.395 174.014ZM276.691 174.014C276.691 175.994 277.843 176.966 279.193 176.966C280.525 176.966 281.803 175.994 281.803 174.014C281.803 172.016 280.561 171.062 279.229 171.062C277.897 171.062 276.691 172.016 276.691 174.014ZM293.228 179V173.492C293.228 171.89 292.346 171.026 291.014 171.026C289.646 171.026 288.764 171.89 288.764 173.492V179H286.244V169.028H288.764V170.27C289.412 169.424 290.492 168.884 291.77 168.884C294.092 168.884 295.748 170.396 295.748 173.15V179H293.228ZM298.18 173.636V171.512H305.812V173.636H298.18ZM322.588 179V173.492C322.588 171.908 321.706 171.08 320.374 171.08C319.024 171.08 318.142 171.908 318.142 173.492V179H315.622V173.492C315.622 171.908 314.74 171.08 313.408 171.08C312.04 171.08 311.158 171.908 311.158 173.492V179H308.638V169.028H311.158V170.234C311.788 169.406 312.85 168.884 314.092 168.884C315.64 168.884 316.918 169.55 317.602 170.792C318.25 169.658 319.564 168.884 321.022 168.884C323.416 168.884 325.108 170.396 325.108 173.15V179H322.588ZM331.784 170.936C330.578 170.936 329.624 171.71 329.426 173.078H334.16C334.124 171.764 333.08 170.936 331.784 170.936ZM336.518 175.868C335.978 177.704 334.322 179.162 331.856 179.162C328.958 179.162 326.852 177.146 326.852 174.014C326.852 170.864 328.904 168.866 331.856 168.866C334.736 168.866 336.77 170.828 336.77 173.798C336.77 174.122 336.752 174.446 336.698 174.77H329.408C329.534 176.246 330.542 177.074 331.802 177.074C332.882 177.074 333.476 176.534 333.8 175.868H336.518ZM339.005 175.904V171.098H337.817V169.028H339.005V166.562H341.543V169.028H343.775V171.098H341.543V175.922C341.543 176.588 341.813 176.876 342.605 176.876H343.775V179H342.191C340.283 179 339.005 178.19 339.005 175.904ZM344.94 173.978C344.94 170.864 346.956 168.866 349.494 168.866C351.096 168.866 352.194 169.622 352.788 170.45V169.028H355.326V179H352.788V177.542C352.194 178.406 351.06 179.162 349.476 179.162C346.956 179.162 344.94 177.092 344.94 173.978ZM352.788 174.014C352.788 172.124 351.528 171.08 350.142 171.08C348.792 171.08 347.514 172.088 347.514 173.978C347.514 175.868 348.792 176.948 350.142 176.948C351.528 176.948 352.788 175.904 352.788 174.014ZM357.787 179V165.68H360.307V179H357.787ZM370.537 176.156C370.537 177.866 369.043 179.162 366.613 179.162C364.111 179.162 362.365 177.704 362.257 175.85H364.795C364.885 176.606 365.587 177.182 366.595 177.182C367.585 177.182 368.125 176.732 368.125 176.156C368.125 174.374 362.491 175.508 362.491 171.854C362.491 170.198 363.967 168.866 366.433 168.866C368.845 168.866 370.303 170.18 370.447 172.16H368.035C367.963 171.386 367.351 170.864 366.361 170.864C365.425 170.864 364.939 171.242 364.939 171.818C364.939 173.636 370.465 172.502 370.537 176.156ZM186.673 203V193.028H189.193V203H186.673ZM187.951 191.84C187.051 191.84 186.403 191.192 186.403 190.364C186.403 189.536 187.051 188.888 187.951 188.888C188.833 188.888 189.499 189.536 189.499 190.364C189.499 191.192 188.833 191.84 187.951 191.84ZM199.422 200.156C199.422 201.866 197.928 203.162 195.498 203.162C192.996 203.162 191.25 201.704 191.142 199.85H193.68C193.77 200.606 194.472 201.182 195.48 201.182C196.47 201.182 197.01 200.732 197.01 200.156C197.01 198.374 191.376 199.508 191.376 195.854C191.376 194.198 192.852 192.866 195.318 192.866C197.73 192.866 199.188 194.18 199.332 196.16H196.92C196.848 195.386 196.236 194.864 195.246 194.864C194.31 194.864 193.824 195.242 193.824 195.818C193.824 197.636 199.35 196.502 199.422 200.156ZM205.132 198.014C205.132 194.882 207.184 192.866 210.064 192.866C212.548 192.866 214.222 194.162 214.762 196.394H212.044C211.756 195.548 211.09 195.008 210.046 195.008C208.642 195.008 207.706 196.07 207.706 198.014C207.706 199.958 208.642 201.002 210.046 201.002C211.09 201.002 211.738 200.534 212.044 199.634H214.762C214.222 201.758 212.548 203.162 210.064 203.162C207.184 203.162 205.132 201.146 205.132 198.014ZM215.96 197.978C215.96 194.864 217.976 192.866 220.514 192.866C222.116 192.866 223.214 193.622 223.808 194.45V193.028H226.346V203H223.808V201.542C223.214 202.406 222.08 203.162 220.496 203.162C217.976 203.162 215.96 201.092 215.96 197.978ZM223.808 198.014C223.808 196.124 222.548 195.08 221.162 195.08C219.812 195.08 218.534 196.088 218.534 197.978C218.534 199.868 219.812 200.948 221.162 200.948C222.548 200.948 223.808 199.904 223.808 198.014ZM228.807 203V189.68H231.327V203H228.807ZM233.817 203V189.68H236.337V203H233.817ZM243.111 194.936C241.905 194.936 240.951 195.71 240.753 197.078H245.487C245.451 195.764 244.407 194.936 243.111 194.936ZM247.845 199.868C247.305 201.704 245.649 203.162 243.183 203.162C240.285 203.162 238.179 201.146 238.179 198.014C238.179 194.864 240.231 192.866 243.183 192.866C246.063 192.866 248.097 194.828 248.097 197.798C248.097 198.122 248.079 198.446 248.025 198.77H240.735C240.861 200.246 241.869 201.074 243.129 201.074C244.209 201.074 244.803 200.534 245.127 199.868H247.845ZM249.288 197.978C249.288 194.864 251.304 192.866 253.86 192.866C255.174 192.866 256.434 193.478 257.118 194.414V189.68H259.674V203H257.118V201.524C256.524 202.442 255.408 203.162 253.842 203.162C251.304 203.162 249.288 201.092 249.288 197.978ZM257.136 198.014C257.136 196.124 255.876 195.08 254.49 195.08C253.14 195.08 251.862 196.088 251.862 197.978C251.862 199.868 253.14 200.948 254.49 200.948C255.876 200.948 257.136 199.904 257.136 198.014ZM264.782 201.65C264.782 202.478 264.134 203.126 263.252 203.126C262.334 203.126 261.686 202.478 261.686 201.65C261.686 200.822 262.334 200.174 263.252 200.174C264.134 200.174 264.782 200.822 264.782 201.65Z" fill="#392C6E"/>
<path d="M104.704 277L103.968 274.872H99.5196L98.7836 277H96.4316L100.448 265.816H103.056L107.072 277H104.704ZM103.36 273.08L101.744 268.408L100.128 273.08H103.36ZM108.573 277V265.16H110.813V277H108.573ZM113.026 277V265.16H115.266V277H113.026ZM126.039 272.568C126.039 275.352 123.991 277.144 121.415 277.144C118.855 277.144 116.919 275.352 116.919 272.568C116.919 269.768 118.919 267.992 121.479 267.992C124.039 267.992 126.039 269.768 126.039 272.568ZM119.191 272.568C119.191 274.328 120.215 275.192 121.415 275.192C122.599 275.192 123.735 274.328 123.735 272.568C123.735 270.792 122.631 269.944 121.447 269.944C120.263 269.944 119.191 270.792 119.191 272.568ZM131.458 274.328L133.778 268.136H136.162L130.674 281.192H128.29L130.21 276.776L126.658 268.136H129.17L131.458 274.328ZM144.25 274.472C144.25 275.992 142.922 277.144 140.762 277.144C138.538 277.144 136.986 275.848 136.89 274.2H139.146C139.226 274.872 139.85 275.384 140.746 275.384C141.626 275.384 142.106 274.984 142.106 274.472C142.106 272.888 137.098 273.896 137.098 270.648C137.098 269.176 138.41 267.992 140.602 267.992C142.746 267.992 144.042 269.16 144.17 270.92H142.026C141.962 270.232 141.418 269.768 140.538 269.768C139.706 269.768 139.274 270.104 139.274 270.616C139.274 272.232 144.186 271.224 144.25 274.472Z" fill="#392C6E"/>
<path d="M300.136 340V335.248H295.352V340H293.112V328.832H295.352V333.424H300.136V328.832H302.376V340H300.136ZM304.005 335.536C304.005 332.768 305.797 330.992 308.053 330.992C309.477 330.992 310.453 331.664 310.981 332.4V331.136H313.237V340H310.981V338.704C310.453 339.472 309.445 340.144 308.037 340.144C305.797 340.144 304.005 338.304 304.005 335.536ZM310.981 335.568C310.981 333.888 309.861 332.96 308.629 332.96C307.429 332.96 306.293 333.856 306.293 335.536C306.293 337.216 307.429 338.176 308.629 338.176C309.861 338.176 310.981 337.248 310.981 335.568ZM315.424 340V328.16H317.664V340H315.424ZM328.437 335.568C328.437 338.352 326.389 340.144 323.813 340.144C321.253 340.144 319.317 338.352 319.317 335.568C319.317 332.768 321.317 330.992 323.877 330.992C326.437 330.992 328.437 332.768 328.437 335.568ZM321.589 335.568C321.589 337.328 322.613 338.192 323.813 338.192C324.997 338.192 326.133 337.328 326.133 335.568C326.133 333.792 325.029 332.944 323.845 332.944C322.661 332.944 321.589 333.792 321.589 335.568ZM329.505 335.536C329.505 332.768 331.297 330.992 333.553 330.992C334.945 330.992 335.953 331.632 336.481 332.4V331.136H338.737V340.064C338.737 342.464 337.265 344.368 334.353 344.368C331.857 344.368 330.113 343.12 329.889 341.088H332.113C332.337 341.888 333.169 342.416 334.289 342.416C335.521 342.416 336.481 341.712 336.481 340.064V338.688C335.953 339.456 334.945 340.144 333.553 340.144C331.297 340.144 329.505 338.304 329.505 335.536ZM336.481 335.568C336.481 333.888 335.361 332.96 334.129 332.96C332.929 332.96 331.793 333.856 331.793 335.536C331.793 337.216 332.929 338.176 334.129 338.176C335.361 338.176 336.481 337.248 336.481 335.568ZM344.732 332.832C343.66 332.832 342.812 333.52 342.636 334.736H346.844C346.812 333.568 345.884 332.832 344.732 332.832ZM348.94 337.216C348.46 338.848 346.988 340.144 344.796 340.144C342.22 340.144 340.348 338.352 340.348 335.568C340.348 332.768 342.172 330.992 344.796 330.992C347.356 330.992 349.164 332.736 349.164 335.376C349.164 335.664 349.148 335.952 349.1 336.24H342.62C342.732 337.552 343.628 338.288 344.748 338.288C345.708 338.288 346.236 337.808 346.524 337.216H348.94ZM357.007 340V335.104C357.007 333.68 356.223 332.912 355.039 332.912C353.823 332.912 353.039 333.68 353.039 335.104V340H350.799V331.136H353.039V332.24C353.615 331.488 354.575 331.008 355.711 331.008C357.775 331.008 359.247 332.352 359.247 334.8V340H357.007ZM368.257 337.472C368.257 338.992 366.929 340.144 364.769 340.144C362.545 340.144 360.993 338.848 360.897 337.2H363.153C363.233 337.872 363.857 338.384 364.753 338.384C365.633 338.384 366.113 337.984 366.113 337.472C366.113 335.888 361.105 336.896 361.105 333.648C361.105 332.176 362.417 330.992 364.609 330.992C366.753 330.992 368.049 332.16 368.177 333.92H366.033C365.969 333.232 365.425 332.768 364.545 332.768C363.713 332.768 363.281 333.104 363.281 333.616C363.281 335.232 368.193 334.224 368.257 337.472Z" fill="white"/>
<path d="M289.385 277V265.832H291.929L295.481 274.136L299.033 265.832H301.561V277H299.321V269.736L296.329 277H294.633L291.625 269.736V277H289.385ZM307.584 269.832C306.512 269.832 305.664 270.52 305.488 271.736H309.696C309.664 270.568 308.736 269.832 307.584 269.832ZM311.792 274.216C311.312 275.848 309.84 277.144 307.648 277.144C305.072 277.144 303.2 275.352 303.2 272.568C303.2 269.768 305.024 267.992 307.648 267.992C310.208 267.992 312.016 269.736 312.016 272.376C312.016 272.664 312 272.952 311.952 273.24H305.472C305.584 274.552 306.48 275.288 307.6 275.288C308.56 275.288 309.088 274.808 309.376 274.216H311.792ZM314.003 274.248V269.976H312.947V268.136H314.003V265.944H316.259V268.136H318.243V269.976H316.259V274.264C316.259 274.856 316.499 275.112 317.203 275.112H318.243V277H316.835C315.139 277 314.003 276.28 314.003 274.248ZM319.278 272.536C319.278 269.768 321.07 267.992 323.326 267.992C324.75 267.992 325.726 268.664 326.254 269.4V268.136H328.51V277H326.254V275.704C325.726 276.472 324.718 277.144 323.31 277.144C321.07 277.144 319.278 275.304 319.278 272.536ZM326.254 272.568C326.254 270.888 325.134 269.96 323.902 269.96C322.702 269.96 321.566 270.856 321.566 272.536C321.566 274.216 322.702 275.176 323.902 275.176C325.134 275.176 326.254 274.248 326.254 272.568ZM330.698 277V265.16H332.938V277H330.698ZM335.151 277V265.16H337.391V277H335.151ZM348.164 272.568C348.164 275.352 346.116 277.144 343.54 277.144C340.98 277.144 339.044 275.352 339.044 272.568C339.044 269.768 341.044 267.992 343.604 267.992C346.164 267.992 348.164 269.768 348.164 272.568ZM341.316 272.568C341.316 274.328 342.34 275.192 343.54 275.192C344.724 275.192 345.86 274.328 345.86 272.568C345.86 270.792 344.756 269.944 343.572 269.944C342.388 269.944 341.316 270.792 341.316 272.568ZM349.807 277V268.136H352.047V277H349.807ZM350.943 267.08C350.143 267.08 349.567 266.504 349.567 265.768C349.567 265.032 350.143 264.456 350.943 264.456C351.727 264.456 352.319 265.032 352.319 265.768C352.319 266.504 351.727 267.08 350.943 267.08ZM353.684 272.536C353.684 269.768 355.476 267.992 357.748 267.992C358.916 267.992 360.036 268.536 360.644 269.368V265.16H362.916V277H360.644V275.688C360.116 276.504 359.124 277.144 357.732 277.144C355.476 277.144 353.684 275.304 353.684 272.536ZM360.66 272.568C360.66 270.888 359.54 269.96 358.308 269.96C357.108 269.96 355.972 270.856 355.972 272.536C355.972 274.216 357.108 275.176 358.308 275.176C359.54 275.176 360.66 274.248 360.66 272.568ZM371.984 274.472C371.984 275.992 370.656 277.144 368.496 277.144C366.272 277.144 364.72 275.848 364.624 274.2H366.88C366.96 274.872 367.584 275.384 368.48 275.384C369.36 275.384 369.84 274.984 369.84 274.472C369.84 272.888 364.832 273.896 364.832 270.648C364.832 269.176 366.144 267.992 368.336 267.992C370.48 267.992 371.776 269.16 371.904 270.92H369.76C369.696 270.232 369.152 269.768 368.272 269.768C367.44 269.768 367.008 270.104 367.008 270.616C367.008 272.232 371.92 271.224 371.984 274.472Z" fill="#392C6E"/>
<path d="M73.6069 334.4C73.6069 331.056 76.0549 328.688 79.2709 328.688C81.7509 328.688 83.7669 330.016 84.5189 332.304H81.9429C81.4149 331.232 80.4549 330.704 79.2549 330.704C77.3029 330.704 75.9109 332.128 75.9109 334.4C75.9109 336.656 77.3029 338.096 79.2549 338.096C80.4549 338.096 81.4149 337.568 81.9429 336.48H84.5189C83.7669 338.784 81.7509 340.096 79.2709 340.096C76.0549 340.096 73.6069 337.744 73.6069 334.4ZM86.4321 340V328.16H88.6721V332.24C89.2481 331.488 90.2401 331.008 91.4241 331.008C93.4241 331.008 94.8801 332.352 94.8801 334.8V340H92.6401V335.104C92.6401 333.68 91.8561 332.912 90.6721 332.912C89.4561 332.912 88.6721 333.68 88.6721 335.104V340H86.4321ZM96.4342 335.536C96.4342 332.768 98.2263 330.992 100.482 330.992C101.906 330.992 102.882 331.664 103.41 332.4V331.136H105.666V340H103.41V338.704C102.882 339.472 101.874 340.144 100.466 340.144C98.2263 340.144 96.4342 338.304 96.4342 335.536ZM103.41 335.568C103.41 333.888 102.29 332.96 101.058 332.96C99.8583 332.96 98.7223 333.856 98.7223 335.536C98.7223 337.216 99.8583 338.176 101.058 338.176C102.29 338.176 103.41 337.248 103.41 335.568ZM107.854 340V328.16H110.094V340H107.854ZM112.307 340V328.16H114.547V334.896L117.523 331.136H120.435L116.531 335.584L120.467 340H117.555L114.547 336.224V340H112.307ZM130.211 335.568C130.211 338.352 128.163 340.144 125.587 340.144C123.027 340.144 121.091 338.352 121.091 335.568C121.091 332.768 123.091 330.992 125.651 330.992C128.211 330.992 130.211 332.768 130.211 335.568ZM123.363 335.568C123.363 337.328 124.387 338.192 125.587 338.192C126.771 338.192 127.907 337.328 127.907 335.568C127.907 333.792 126.803 332.944 125.619 332.944C124.435 332.944 123.363 333.792 123.363 335.568ZM131.278 335.536C131.278 332.768 133.07 330.992 135.326 330.992C136.718 330.992 137.726 331.632 138.254 332.4V331.136H140.51V340.064C140.51 342.464 139.038 344.368 136.126 344.368C133.63 344.368 131.886 343.12 131.662 341.088H133.886C134.11 341.888 134.942 342.416 136.062 342.416C137.294 342.416 138.254 341.712 138.254 340.064V338.688C137.726 339.456 136.718 340.144 135.326 340.144C133.07 340.144 131.278 338.304 131.278 335.536ZM138.254 335.568C138.254 333.888 137.134 332.96 135.902 332.96C134.702 332.96 133.566 333.856 133.566 335.536C133.566 337.216 134.702 338.176 135.902 338.176C137.134 338.176 138.254 337.248 138.254 335.568ZM146.506 332.832C145.434 332.832 144.586 333.52 144.41 334.736H148.618C148.586 333.568 147.658 332.832 146.506 332.832ZM150.714 337.216C150.234 338.848 148.762 340.144 146.57 340.144C143.994 340.144 142.122 338.352 142.122 335.568C142.122 332.768 143.946 330.992 146.57 330.992C149.13 330.992 150.938 332.736 150.938 335.376C150.938 335.664 150.922 335.952 150.874 336.24H144.394C144.506 337.552 145.402 338.288 146.522 338.288C147.482 338.288 148.01 337.808 148.298 337.216H150.714ZM158.781 340V335.104C158.781 333.68 157.997 332.912 156.813 332.912C155.597 332.912 154.813 333.68 154.813 335.104V340H152.573V331.136H154.813V332.24C155.389 331.488 156.349 331.008 157.485 331.008C159.549 331.008 161.021 332.352 161.021 334.8V340H158.781ZM170.031 337.472C170.031 338.992 168.703 340.144 166.543 340.144C164.319 340.144 162.767 338.848 162.671 337.2H164.927C165.007 337.872 165.631 338.384 166.527 338.384C167.407 338.384 167.887 337.984 167.887 337.472C167.887 335.888 162.879 336.896 162.879 333.648C162.879 332.176 164.191 330.992 166.383 330.992C168.527 330.992 169.823 332.16 169.951 333.92H167.807C167.743 333.232 167.199 332.768 166.319 332.768C165.487 332.768 165.055 333.104 165.055 333.616C165.055 335.232 169.967 334.224 170.031 337.472Z" fill="#392C6E"/>
<path d="M171.885 395.04V393.878H174.517V404H173.229V395.04H171.885ZM185.071 404.098C184.166 404.098 183.34 403.888 182.593 403.468C181.847 403.039 181.254 402.446 180.815 401.69C180.386 400.925 180.171 400.066 180.171 399.114C180.171 398.162 180.386 397.308 180.815 396.552C181.254 395.787 181.847 395.194 182.593 394.774C183.34 394.345 184.166 394.13 185.071 394.13C185.986 394.13 186.817 394.345 187.563 394.774C188.31 395.194 188.898 395.782 189.327 396.538C189.757 397.294 189.971 398.153 189.971 399.114C189.971 400.075 189.757 400.934 189.327 401.69C188.898 402.446 188.31 403.039 187.563 403.468C186.817 403.888 185.986 404.098 185.071 404.098ZM185.071 402.992C185.753 402.992 186.364 402.833 186.905 402.516C187.456 402.199 187.885 401.746 188.193 401.158C188.511 400.57 188.669 399.889 188.669 399.114C188.669 398.33 188.511 397.649 188.193 397.07C187.885 396.482 187.461 396.029 186.919 395.712C186.378 395.395 185.762 395.236 185.071 395.236C184.381 395.236 183.765 395.395 183.223 395.712C182.682 396.029 182.253 396.482 181.935 397.07C181.627 397.649 181.473 398.33 181.473 399.114C181.473 399.889 181.627 400.57 181.935 401.158C182.253 401.746 182.682 402.199 183.223 402.516C183.774 402.833 184.39 402.992 185.071 402.992ZM194.775 397.378H193.165V404H191.891V397.378H190.897V396.328H191.891V395.782C191.891 394.923 192.111 394.298 192.549 393.906C192.997 393.505 193.711 393.304 194.691 393.304V394.368C194.131 394.368 193.735 394.48 193.501 394.704C193.277 394.919 193.165 395.278 193.165 395.782V396.328H194.775V397.378ZM199.149 403.86V402.404C201.459 400.444 203.881 398.638 203.881 396.762C203.881 395.852 203.475 395.236 202.509 395.236C201.571 395.236 201.053 395.908 201.039 396.986H199.135C199.205 394.648 200.703 393.57 202.537 393.57C204.735 393.57 205.841 394.872 205.841 396.65C205.841 399.016 203.559 400.864 201.935 402.236H206.065V403.86H199.149ZM218.798 405.848L216.852 403.902C216.376 404.033 215.89 404.098 215.396 404.098C214.49 404.098 213.664 403.888 212.918 403.468C212.171 403.039 211.578 402.446 211.14 401.69C210.71 400.925 210.496 400.066 210.496 399.114C210.496 398.162 210.71 397.308 211.14 396.552C211.578 395.787 212.171 395.194 212.918 394.774C213.664 394.345 214.49 394.13 215.396 394.13C216.31 394.13 217.141 394.345 217.888 394.774C218.634 395.194 219.222 395.782 219.652 396.538C220.081 397.294 220.296 398.153 220.296 399.114C220.296 400.047 220.09 400.887 219.68 401.634C219.269 402.381 218.704 402.969 217.986 403.398L220.45 405.848H218.798ZM211.798 399.114C211.798 399.889 211.952 400.57 212.26 401.158C212.577 401.746 213.006 402.199 213.548 402.516C214.098 402.833 214.714 402.992 215.396 402.992C216.077 402.992 216.688 402.833 217.23 402.516C217.78 402.199 218.21 401.746 218.518 401.158C218.835 400.57 218.994 399.889 218.994 399.114C218.994 398.33 218.835 397.649 218.518 397.07C218.21 396.482 217.785 396.029 217.244 395.712C216.702 395.395 216.086 395.236 215.396 395.236C214.705 395.236 214.089 395.395 213.548 395.712C213.006 396.029 212.577 396.482 212.26 397.07C211.952 397.649 211.798 398.33 211.798 399.114ZM228.809 396.328V404H227.535V402.866C227.292 403.258 226.951 403.566 226.513 403.79C226.083 404.005 225.607 404.112 225.085 404.112C224.487 404.112 223.951 403.991 223.475 403.748C222.999 403.496 222.621 403.123 222.341 402.628C222.07 402.133 221.935 401.531 221.935 400.822V396.328H223.195V400.654C223.195 401.41 223.386 401.993 223.769 402.404C224.151 402.805 224.674 403.006 225.337 403.006C226.018 403.006 226.555 402.796 226.947 402.376C227.339 401.956 227.535 401.345 227.535 400.542V396.328H228.809ZM237.96 399.87C237.96 400.113 237.946 400.369 237.918 400.64H231.786C231.833 401.396 232.089 401.989 232.556 402.418C233.032 402.838 233.606 403.048 234.278 403.048C234.829 403.048 235.286 402.922 235.65 402.67C236.023 402.409 236.285 402.063 236.434 401.634H237.806C237.601 402.371 237.19 402.973 236.574 403.44C235.958 403.897 235.193 404.126 234.278 404.126C233.55 404.126 232.897 403.963 232.318 403.636C231.749 403.309 231.301 402.847 230.974 402.25C230.647 401.643 230.484 400.943 230.484 400.15C230.484 399.357 230.643 398.661 230.96 398.064C231.277 397.467 231.721 397.009 232.29 396.692C232.869 396.365 233.531 396.202 234.278 396.202C235.006 396.202 235.65 396.361 236.21 396.678C236.77 396.995 237.199 397.434 237.498 397.994C237.806 398.545 237.96 399.17 237.96 399.87ZM236.644 399.604C236.644 399.119 236.537 398.703 236.322 398.358C236.107 398.003 235.813 397.737 235.44 397.56C235.076 397.373 234.67 397.28 234.222 397.28C233.578 397.28 233.027 397.485 232.57 397.896C232.122 398.307 231.865 398.876 231.8 399.604H236.644ZM242.357 404.126C241.769 404.126 241.242 404.028 240.775 403.832C240.309 403.627 239.94 403.347 239.669 402.992C239.399 402.628 239.249 402.213 239.221 401.746H240.537C240.575 402.129 240.752 402.441 241.069 402.684C241.396 402.927 241.821 403.048 242.343 403.048C242.829 403.048 243.211 402.941 243.491 402.726C243.771 402.511 243.911 402.241 243.911 401.914C243.911 401.578 243.762 401.331 243.463 401.172C243.165 401.004 242.703 400.841 242.077 400.682C241.508 400.533 241.041 400.383 240.677 400.234C240.323 400.075 240.015 399.847 239.753 399.548C239.501 399.24 239.375 398.839 239.375 398.344C239.375 397.952 239.492 397.593 239.725 397.266C239.959 396.939 240.29 396.683 240.719 396.496C241.149 396.3 241.639 396.202 242.189 396.202C243.039 396.202 243.725 396.417 244.247 396.846C244.77 397.275 245.05 397.863 245.087 398.61H243.813C243.785 398.209 243.622 397.887 243.323 397.644C243.034 397.401 242.642 397.28 242.147 397.28C241.69 397.28 241.326 397.378 241.055 397.574C240.785 397.77 240.649 398.027 240.649 398.344C240.649 398.596 240.729 398.806 240.887 398.974C241.055 399.133 241.261 399.263 241.503 399.366C241.755 399.459 242.101 399.567 242.539 399.688C243.09 399.837 243.538 399.987 243.883 400.136C244.229 400.276 244.523 400.491 244.765 400.78C245.017 401.069 245.148 401.447 245.157 401.914C245.157 402.334 245.041 402.712 244.807 403.048C244.574 403.384 244.243 403.65 243.813 403.846C243.393 404.033 242.908 404.126 242.357 404.126ZM248.51 397.378V401.9C248.51 402.273 248.589 402.539 248.748 402.698C248.907 402.847 249.182 402.922 249.574 402.922H250.512V404H249.364C248.655 404 248.123 403.837 247.768 403.51C247.413 403.183 247.236 402.647 247.236 401.9V397.378H246.242V396.328H247.236V394.396H248.51V396.328H250.512V397.378H248.51ZM252.714 395.082C252.471 395.082 252.266 394.998 252.098 394.83C251.93 394.662 251.846 394.457 251.846 394.214C251.846 393.971 251.93 393.766 252.098 393.598C252.266 393.43 252.471 393.346 252.714 393.346C252.947 393.346 253.143 393.43 253.302 393.598C253.47 393.766 253.554 393.971 253.554 394.214C253.554 394.457 253.47 394.662 253.302 394.83C253.143 394.998 252.947 395.082 252.714 395.082ZM253.33 396.328V404H252.056V396.328H253.33ZM258.847 404.126C258.128 404.126 257.475 403.963 256.887 403.636C256.308 403.309 255.851 402.847 255.515 402.25C255.188 401.643 255.025 400.943 255.025 400.15C255.025 399.366 255.193 398.675 255.529 398.078C255.874 397.471 256.341 397.009 256.929 396.692C257.517 396.365 258.175 396.202 258.903 396.202C259.631 396.202 260.289 396.365 260.877 396.692C261.465 397.009 261.927 397.467 262.263 398.064C262.608 398.661 262.781 399.357 262.781 400.15C262.781 400.943 262.604 401.643 262.249 402.25C261.904 402.847 261.432 403.309 260.835 403.636C260.238 403.963 259.575 404.126 258.847 404.126ZM258.847 403.006C259.304 403.006 259.734 402.899 260.135 402.684C260.536 402.469 260.858 402.147 261.101 401.718C261.353 401.289 261.479 400.766 261.479 400.15C261.479 399.534 261.358 399.011 261.115 398.582C260.872 398.153 260.555 397.835 260.163 397.63C259.771 397.415 259.346 397.308 258.889 397.308C258.422 397.308 257.993 397.415 257.601 397.63C257.218 397.835 256.91 398.153 256.677 398.582C256.444 399.011 256.327 399.534 256.327 400.15C256.327 400.775 256.439 401.303 256.663 401.732C256.896 402.161 257.204 402.483 257.587 402.698C257.97 402.903 258.39 403.006 258.847 403.006ZM268.194 396.188C269.127 396.188 269.883 396.473 270.462 397.042C271.041 397.602 271.33 398.414 271.33 399.478V404H270.07V399.66C270.07 398.895 269.879 398.311 269.496 397.91C269.113 397.499 268.591 397.294 267.928 397.294C267.256 397.294 266.719 397.504 266.318 397.924C265.926 398.344 265.73 398.955 265.73 399.758V404H264.456V396.328H265.73V397.42C265.982 397.028 266.323 396.725 266.752 396.51C267.191 396.295 267.671 396.188 268.194 396.188ZM276.127 404.126C275.539 404.126 275.012 404.028 274.545 403.832C274.078 403.627 273.71 403.347 273.439 402.992C273.168 402.628 273.019 402.213 272.991 401.746H274.307C274.344 402.129 274.522 402.441 274.839 402.684C275.166 402.927 275.59 403.048 276.113 403.048C276.598 403.048 276.981 402.941 277.261 402.726C277.541 402.511 277.681 402.241 277.681 401.914C277.681 401.578 277.532 401.331 277.233 401.172C276.934 401.004 276.472 400.841 275.847 400.682C275.278 400.533 274.811 400.383 274.447 400.234C274.092 400.075 273.784 399.847 273.523 399.548C273.271 399.24 273.145 398.839 273.145 398.344C273.145 397.952 273.262 397.593 273.495 397.266C273.728 396.939 274.06 396.683 274.489 396.496C274.918 396.3 275.408 396.202 275.959 396.202C276.808 396.202 277.494 396.417 278.017 396.846C278.54 397.275 278.82 397.863 278.857 398.61H277.583C277.555 398.209 277.392 397.887 277.093 397.644C276.804 397.401 276.412 397.28 275.917 397.28C275.46 397.28 275.096 397.378 274.825 397.574C274.554 397.77 274.419 398.027 274.419 398.344C274.419 398.596 274.498 398.806 274.657 398.974C274.825 399.133 275.03 399.263 275.273 399.366C275.525 399.459 275.87 399.567 276.309 399.688C276.86 399.837 277.308 399.987 277.653 400.136C277.998 400.276 278.292 400.491 278.535 400.78C278.787 401.069 278.918 401.447 278.927 401.914C278.927 402.334 278.81 402.712 278.577 403.048C278.344 403.384 278.012 403.65 277.583 403.846C277.163 404.033 276.678 404.126 276.127 404.126Z" fill="#392C6E"/>
<defs>
<filter id="filter0_d_31_18969" x="50.3911" y="21.6" width="349.144" height="61.61" filterUnits="userSpaceOnUse" color-interpolation-filters="sRGB">
<feFlood flood-opacity="0" result="BackgroundImageFix"/>
<feColorMatrix in="SourceAlpha" type="matrix" values="0 0 0 0 0 0 0 0 0 0 0 0 0 0 0 0 0 0 127 0" result="hardAlpha"/>
<feOffset dy="2"/>
<feGaussianBlur stdDeviation="2"/>
<feComposite in2="hardAlpha" operator="out"/>
<feColorMatrix type="matrix" values="0 0 0 0 0 0 0 0 0 0 0 0 0 0 0 0 0 0 0.25 0"/>
<feBlend mode="normal" in2="BackgroundImageFix" result="effect1_dropShadow_31_18969"/>
<feBlend mode="normal" in="SourceGraphic" in2="effect1_dropShadow_31_18969" result="shape"/>
</filter>
</defs>
</svg>
