<?xml version="1.0" encoding="UTF-8"?>
<svg id="Layer_2" data-name="Layer 2" xmlns="http://www.w3.org/2000/svg" xmlns:xlink="http://www.w3.org/1999/xlink" viewBox="0 0 467.91 162.58">
  <defs>
    <style>
      .cls-1 {
        clip-path: url(#clippath-1);
      }

      .cls-2 {
        fill: #fefefe;
      }
    </style>
    <clipPath id="clippath-1">
      <path class="cls-2" d="M84.21,108.88l9.82-5.69,5.51,3.19-9.82,5.69-5.5-3.19ZM76.74,34.4l-7.47,4.33,27.51,15.95v6.38l-33.01-19.16-27.51,15.95v8.66l27.51-15.95,5.5,3.19-33.01,19.14v31.88l7.47,4.33v-31.88l5.5-3.19v38.27l27.51,15.94,7.47-4.33-27.51-15.94v-6.38l33.01,19.14,17.29-10.03,17.47,10.12v-8.62l-47.09-27.29v8.62l9.18,5.32-9.82,5.69-20.03-11.62v-23.23l20.04-11.62,20.04,11.62v11.38l-19.41-11.25v8.63l47.09,27.28v-8.62l-7.25-4.2v-35.07l-7.46-4.33v35.08l-5.5-3.19v-35.07l-7.27-4.21-20.24-11.73Z"/>
    </clipPath>
  </defs>
  <g id="Layer_1-2" data-name="Layer 1">
    <g id="Group_1658" data-name="Group 1658">
      <g>
        <path id="Path_1" data-name="Path 1" class="cls-2" d="M76.74,113.21l-10.72-6.21-9.32-5.4,20.04,11.62Z"/>
        <g id="Group_2-2" data-name="Group 2">
          <g>
            <path class="cls-2" d="M84.21,108.88l9.82-5.69,5.51,3.19-9.82,5.69-5.5-3.19ZM76.74,34.4l-7.47,4.33,27.51,15.95v6.38l-33.01-19.16-27.51,15.95v8.66l27.51-15.95,5.5,3.19-33.01,19.14v31.88l7.47,4.33v-31.88l5.5-3.19v38.27l27.51,15.94,7.47-4.33-27.51-15.94v-6.38l33.01,19.14,17.29-10.03,17.47,10.12v-8.62l-47.09-27.29v8.62l9.18,5.32-9.82,5.69-20.03-11.62v-23.23l20.04-11.62,20.04,11.62v11.38l-19.41-11.25v8.63l47.09,27.28v-8.62l-7.25-4.2v-35.07l-7.46-4.33v35.08l-5.5-3.19v-35.07l-7.27-4.21-20.24-11.73Z"/>
            <g class="cls-1">
              <g id="Group_1" data-name="Group 1">
                <path id="Path_19" data-name="Path 19" class="cls-2" d="M0,51.71L108.18,0l52.58,110.86-108.18,51.71L0,51.71Z"/>
              </g>
            </g>
          </g>
        </g>
        <g id="Group_4" data-name="Group 4">
          <g id="Group_3" data-name="Group 3">
            <path id="Path_3" data-name="Path 3" class="cls-2" d="M169.59,40.53c13.49,0,22.36,7.28,22.36,21.52v10.44c.17,4.58-1.04,9.11-3.47,13l10.95,11.61h-12.03l-5.71-5.73c-3.78,1.78-7.93,2.66-12.11,2.55h-1.08c-13.49,0-22.44-7.2-22.44-21.44v-10.44c0-14.24,8.87-21.52,22.44-21.52h1.08ZM155.95,62.28v9.91c0,8.67,4.7,13.23,12.57,13.23h1c7.86,0,12.57-4.57,12.57-13.23v-9.91c0-8.67-4.7-13.23-12.57-13.23h-1c-7.87,0-12.57,4.57-12.57,13.23"/>
            <path id="Path_4" data-name="Path 4" class="cls-2" d="M225.96,93.16v-4.72h-1.54c-2.43,3.63-6.59,5.71-10.95,5.5h-.93c-7.63,0-13.11-4.8-13.11-15.48v-24.54h9.48v22.83c0,6.04,3,8.98,8.02,8.98h.93c5.09,0,8.1-2.94,8.1-8.98v-22.83h9.49v39.24h-9.49Z"/>
            <path id="Path_5" data-name="Path 5" class="cls-2" d="M250.02,37.51c2.56-.16,4.77,1.79,4.93,4.35,0,.05,0,.09,0,.14v.39c-.06,2.54-2.16,4.56-4.71,4.5-.08,0-.15,0-.23-.01h-.69c-2.54.18-4.74-1.72-4.92-4.26,0-.08,0-.15-.01-.23v-.39c.08-2.57,2.23-4.58,4.8-4.5.04,0,.09,0,.13,0h.69ZM254.41,57.51v35.66h-9.48v-39.25l9.48,3.59Z"/>
            <path id="Path_6" data-name="Path 6" class="cls-2" d="M293.04,53.92v7.74l-19.66,22.15v1.93h20.06l-3.58,7.43h-28.12v-7.67l19.58-22.21v-1.86h-19.2l3.57-7.51h27.35Z"/>
            <path id="Path_7" data-name="Path 7" class="cls-2" d="M317.71,53.14c11.26,0,16.73,5.25,16.73,14.16v25.85h-9.41v-4.57h-1.54c-2.73,3.67-7.16,5.69-11.72,5.34-6.94,0-12.72-3.57-12.72-11.92,0-7.35,4.78-11.84,15.73-11.84h10.25v-2.87c0-4.88-2.78-6.89-7.32-6.89h-.92c-4.01,0-7.32,2.01-7.32,6.81h-9.25c0-8.82,5.78-14.09,16.58-14.09h.91ZM308.39,81.32c0,3.33,2.31,5.19,6.71,5.19,5.32,0,9.95-2.48,9.95-9.21v-1.15h-9.48c-5.09,0-7.17,1.86-7.17,5.19"/>
            <path id="Path_8" data-name="Path 8" class="cls-2" d="M352.49,53.92v4.72h1.54c2.43-3.63,6.59-5.71,10.95-5.5h.93c7.63,0,13.11,4.8,13.11,15.48v24.54h-9.48v-22.84c0-6.04-3-8.98-8.02-8.98h-.92c-5.09,0-8.1,2.94-8.1,8.98v22.84h-9.48v-39.24h9.48Z"/>
            <path id="Path_9" data-name="Path 9" class="cls-2" d="M404.61,53.14c1.98-.04,3.96.23,5.86.77h19.3l-3.57,6.73-7.09-.39c1.13,2.04,1.71,4.33,1.69,6.66v.78c0,8.45-6.32,13.93-16.19,13.93h-.93c-1.96-.02-3.9-.31-5.78-.85-.7.63-1.1,1.53-1.08,2.48,0,1.55.69,3.72,6.94,3.72h1.93c12.34,0,19.2,3.87,19.2,12.23v.78c0,7.97-7.02,12.54-19.43,12.54h-1.46c-12.26,0-19.12-4.34-19.12-10.68v-.7c0-4.65,3-7.59,7.17-9.06v-1.7c-2.45-.82-4.08-3.14-4.01-5.73.02-2.55,1.62-4.83,4.01-5.73v-1.31c-2.94-2.44-4.62-6.09-4.56-9.91v-.77c0-8.05,6.4-13.78,16.19-13.78h.93ZM394.05,99.35v.62c0,3.64,3.62,5.5,10.18,5.5h1.16c6.55,0,10.25-1.86,10.25-5.5v-.62c0-3.64-3.7-5.34-10.25-5.34h-1.16c-6.55,0-10.18,1.7-10.18,5.34M396.75,66.76v1.08c-.23,3.5,2.43,6.52,5.93,6.75.34.02.68.02,1.01-.02h.85c3.53.34,6.66-2.24,7-5.77.03-.32.04-.64.02-.96v-1.08c0-4.03-2.63-6.58-7.02-6.58h-.85c-4.4,0-6.94,2.55-6.94,6.58"/>
            <path id="Path_10" data-name="Path 10" class="cls-2" d="M449.33,53.14c10.72,0,18.58,5.96,18.58,17.72v5.34c0,11.92-7.87,17.72-18.58,17.72h-.93c-10.8,0-18.66-5.8-18.66-17.72v-5.34c0-11.77,7.86-17.72,18.66-17.72h.93ZM439.23,70.79v5.5c0,6.42,3.08,9.98,9.18,9.98h.93c6.01,0,9.1-3.57,9.1-9.98v-5.49c0-6.35-3.08-9.98-9.1-9.98h-.93c-6.01,0-9.18,3.64-9.18,9.98"/>
            <path id="Path_11" data-name="Path 11" class="cls-2" d="M150.77,119.52v-10.53h2.25l2.39,6.83c.06.18.12.39.19.61.06.22.13.43.19.62.06.19.1.36.13.51h.11c.03-.15.07-.33.12-.53.05-.2.11-.41.17-.62.06-.22.12-.41.17-.58l2.39-6.83h2.23v10.53h-1.45v-6.17c0-.32,0-.66.02-1.04.01-.37.02-.72.03-1.03,0-.31.02-.53.02-.67h-.12c-.03.13-.08.32-.15.56s-.14.49-.22.75-.14.49-.21.7l-2.47,6.89h-1.25l-2.46-6.89c-.06-.17-.12-.38-.19-.61s-.13-.47-.2-.71c-.07-.25-.13-.47-.19-.69h-.11c.01.23.02.5.02.84,0,.33,0,.67.02,1v7.07h-1.4Z"/>
            <path id="Path_12" data-name="Path 12" class="cls-2" d="M171.21,119.52v-10.53h8.07l-.87,1.26h-5.74v3.25h5.95v1.26h-5.95v3.5h6.71v1.26h-8.16Z"/>
            <path id="Path_13" data-name="Path 13" class="cls-2" d="M189.05,119.52v-10.53h3.91c.97-.03,1.93.16,2.82.55.77.36,1.39.96,1.78,1.71.83,1.91.83,4.07,0,5.98-.39.75-1.01,1.36-1.78,1.73-.88.4-1.85.59-2.82.56h-3.91ZM190.5,118.26h2.44c.53,0,1.05-.07,1.56-.22.44-.14.84-.37,1.18-.68.34-.33.6-.74.75-1.19.18-.56.26-1.15.25-1.74v-.31c.01-.6-.07-1.2-.25-1.77-.15-.45-.4-.86-.73-1.19-.33-.31-.73-.55-1.17-.68-.51-.16-1.04-.23-1.57-.22h-2.44v8.01Z"/>
            <path id="Path_14" data-name="Path 14" class="cls-2" d="M207.76,119.52v-10.53l1.45,1.31v9.21h-1.45Z"/>
            <path id="Path_15" data-name="Path 15" class="cls-2" d="M218.12,119.52l4.14-10.53h1.91l4.16,10.53h-1.57l-1.02-2.61h-5.1l-1.01,2.61h-1.5ZM221.1,115.67h4.14l-1.27-3.3c-.03-.09-.08-.22-.14-.38s-.13-.35-.2-.54-.14-.4-.21-.61-.14-.4-.2-.58h-.09l-.24.71c-.09.27-.18.52-.28.78-.09.25-.17.46-.23.64l-1.28,3.29Z"/>
          </g>
        </g>
      </g>
    </g>
  </g>
</svg>